<svg width="3537" xmlns="http://www.w3.org/2000/svg" height="1089" id="screenshot-9898ce2e-4b3b-8046-8002-ece238a89354" fill="none" version="1.1"><style>@font-face{font-family:&apos;SF Pro Display&apos;;font-style:normal;font-weight:700;font-display:block;src:url(https://design.penpot.app/assets/by-id/625d0210-260a-4904-9256-56cfe0441f21) format(&apos;woff&apos;)}</style><g id="shape-9898ce2e-4b3b-8046-8002-ece238a89354"><g id="shape-6cb610af-2dd3-80b3-8002-919a573cdd12"><rect rx="0" ry="0" width="3537" height="1089" style="fill: rgb(255, 255, 255); fill-opacity: 1;" class="fills" id="fills-6cb610af-2dd3-80b3-8002-919a573cdd12"/></g><g class="text-container" id="shape-a836808a-550d-80c2-8002-c8c7a8118d4f"><defs><pattern patternUnits="userSpaceOnUse" x="148" y="37" width="2914.4" height="345.6" id="fill-0-render-3-0"><rect width="2914.4" height="345.6" style="fill: rgb(0, 0, 0); fill-opacity: 1;"/></pattern></defs><text x="365.8" y="735.046" dominant-baseline="ideographic" textLength="2914.4" lengthAdjust="spacingAndGlyphs" style="text-transform: capitalize; font-family: &quot;SF Pro Display&quot;; letter-spacing: 2px; font-style: normal; font-weight: 700; white-space: pre; font-size: 290px; text-decoration: none solid rgb(0, 0, 0); direction: ltr; fill: rgb(0, 0, 0); fill-opacity: 1;" class="fills" id="fills-a836808a-550d-80c2-8002-c8c7a8118d4f">Jannis Treffler Design</text></g><g id="shape-9898ce2e-4b3b-8046-8002-ece130ee2a4b"><g id="shape-9898ce2e-4b3b-8046-8002-ece130ee2a4c"><path d="M100.754 200.246h130.992v57H100.754a28.5 28.5 0 0 1-28.5-28.5 28.5 28.5 0 0 1 28.5-28.5z" transform="rotate(90 152 228.746)" style="fill: rgb(249, 36, 36);" class="fills" id="fills-9898ce2e-4b3b-8046-8002-ece130ee2a4c"/></g><g id="shape-9898ce2e-4b3b-8046-8002-ece130ee2a4d"><rect rx="0" ry="0" x="72.254" y="358.993" transform="rotate(90 152 387.493)" width="159.491" height="57" style="fill: rgb(252, 126, 35);" class="fills" id="fills-9898ce2e-4b3b-8046-8002-ece130ee2a4d"/></g><g id="shape-9898ce2e-4b3b-8046-8002-ece130ee2a4e"><path d="M72.254 832.754h130.992a28.5 28.5 0 0 1 28.5 28.5 28.5 28.5 0 0 1-28.5 28.5H72.254v-57z" transform="rotate(90 152 861.254)" style="fill: rgb(73, 138, 212);" class="fills" id="fills-9898ce2e-4b3b-8046-8002-ece130ee2a4e"/></g><g id="shape-9898ce2e-4b3b-8046-8002-ece130ee2a4f"><rect rx="0" ry="0" x="72.254" y="517.74" transform="rotate(90 152 546.24)" width="159.491" height="57" style="fill: rgb(255, 179, 34);" class="fills" id="fills-9898ce2e-4b3b-8046-8002-ece130ee2a4f"/></g><g id="shape-9898ce2e-4b3b-8046-8002-ece130ee2a50"><rect rx="0" ry="0" x="72.254" y="674.007" transform="rotate(90 152 702.507)" width="159.491" height="57" style="fill: rgb(128, 196, 81);" class="fills" id="fills-9898ce2e-4b3b-8046-8002-ece130ee2a50"/></g></g></g></svg>